<svg width="512" height="512" viewBox="0 0 512 512" fill="none" xmlns="http://www.w3.org/2000/svg">
<g clip-path="url(#clip0_1_2)">
<path d="M229.75 251.783C240.786 232.163 246.304 212.389 246.304 192.462C246.304 179.28 241.553 172.689 232.049 172.689C224.691 172.689 217.181 178.973 209.516 191.543C201.546 204.112 196.334 218.52 193.882 234.768L169.97 381L74.7811 390.197L121.686 146.478L197.56 137.281L189.283 183.725C204.305 152.762 228.677 137.281 262.399 137.281C280.18 137.281 293.822 141.879 303.325 151.076C313.136 160.273 318.041 174.375 318.041 193.382C318.041 212.083 311.756 227.411 299.187 239.367C286.924 251.323 270.216 257.301 249.063 257.301C239.866 257.301 233.429 255.462 229.75 251.783Z" fill="#1E1E1E"/>
<path d="M407.779 323.437C396.429 334.786 382.918 343.569 367.245 349.784C351.842 355.999 336.439 359.107 321.036 359.107C305.633 359.107 295.23 357.756 289.825 355.053L277.26 423.961L194.976 432.068L250.913 144.277L316.983 137.386L311.713 165.355C323.063 146.169 340.493 136.576 364.002 136.576C390.484 136.576 410.751 145.088 424.803 162.112C437.234 177.515 443.449 196.971 443.449 220.481C443.449 243.99 440.341 264.122 434.126 280.876C427.911 297.63 419.128 311.817 407.779 323.437ZM294.689 328.301C300.364 333.165 306.714 335.597 313.74 335.597C320.766 335.597 326.306 334.246 330.359 331.544C334.412 328.841 337.925 324.788 340.898 319.384C349.005 304.791 356.301 275.337 362.786 231.02C364.678 218.049 365.624 205.213 365.624 192.512C365.624 179.812 364.137 171.435 361.165 167.381C358.463 163.328 354.409 161.301 349.005 161.301C332.521 161.301 321.577 177.38 316.172 209.537L294.689 328.301Z" fill="#1E1E1E"/>
</g>
<defs>
<clipPath id="clip0_1_2">
<rect width="512" height="512" fill="white"/>
</clipPath>
</defs>
</svg>
